<?xml version="1.0" encoding="utf-8"?>
<!DOCTYPE svg>
<!--https://github.com/gilbarbara/logos/tree/master/logos-->
<svg viewBox="0 0 130 130" version="1.1" xmlns="http://www.w3.org/2000/svg" xmlns:xlink="http://www.w3.org/1999/xlink" preserveAspectRatio="xMidYMid">
    <g>
        <path d="M119.763599,0 L9.342566,0 C4.065996,0 0.779234,4.18238313 0.779234,9.33927592 L0.779234,120.224619 C0.779234,125.386011 4.065996,129.574692 9.342566,129.574692 L119.763599,129.574692 C125.049167,129.574692 129.355726,125.386011 129.355726,120.224619 L129.355726,9.33927592 C129.355726,4.18238313 125.049167,0 119.763599,0" fill="#006087"></path>
        <path d="M28.603304,17.8390158 C34.749104,17.8390158 39.741329,22.8321406 39.741329,28.9788401 C39.741329,35.1300387 34.749104,40.1249631 28.603304,40.1249631 C22.444907,40.1249631 17.458981,35.1300387 17.458981,28.9788401 C17.458981,22.8321406 22.444907,17.8390158 28.603304,17.8390158 L28.603304,17.8390158 Z M18.990482,48.5779121 L38.208928,48.5779121 L38.208928,110.414735 L18.990482,110.414735 L18.990482,48.5779121 Z" fill="#FFFFFF"></path>
        <path d="M50.262974,48.5779121 L68.699473,48.5779121 L68.699473,57.026362 L68.955023,57.026362 C71.519522,52.1655114 77.789497,47.0392127 87.138671,47.0392127 C106.60007,47.0392127 110.193069,59.8464112 110.193069,76.4958594 L110.193069,110.414735 L90.98812,110.414735 L90.98812,80.3435079 C90.98812,73.1692091 90.855845,63.9460105 81.00097,63.9460105 C70.999424,63.9460105 69.467923,71.7582847 69.467923,79.8243093 L69.467923,110.414735 L50.262974,110.414735 L50.262974,48.5779121" fill="#FFFFFF"></path>
    </g>
</svg>